<svg fill="red" width="800" height="800" viewBox="0 0 512 512" xmlns="http://www.w3.org/2000/svg"><path d="M199.147 91.508a54 54 0 0 1 1.144-11.406l-51.686-29.838C124.735 36.488 94.9 53.687 94.9 81.242v34.311h104.246Zm113.548 24.045H417.03V81.242c0-27.555-29.834-44.754-53.7-30.978l-51.776 29.838a54 54 0 0 1 1.14 11.406Zm-56.686-54.496a30.41 30.41 0 0 0-30.447 30.45v24.046h60.898V91.508a30.47 30.47 0 0 0-30.451-30.451M80.5 155.105V216.5H218v-74.587H93.696A13.196 13.196 0 0 0 80.5 155.105m0 298.337a13.15 13.15 0 0 0 13.145 13.146H218V242.825H80.5Zm337.82-311.529H294V216.5h137.5v-61.408a13.18 13.18 0 0 0-13.18-13.18M294 466.588h124.488a13.014 13.014 0 0 0 13.012-13.013v-210.75H294Z"/></svg>